#!OML:ASF I:\Actors\actors\Patient Classification 2\Patient 1\Session 1\actor1.ASF
:FULLY-SPECIFIED
:DEGREES
146
root -0.724448 18.7508 5.10611 2.83225 -3.14393 -3.03348
lowerback 3.74382 1.94086 -3.3262
upperback 0.318562 2.40036 -2.32472
thorax -1.80778 1.2137 -0.65163
lowerneck -14.1525 1.19246 2.74285
upperneck 36.5678 -0.0559067 2.7657
head 15.1475 0.737874 0.665932
rclavicle 5.46658e-015 -4.77083e-014
rhumerus 34.8516 64.7118 -29.7723
rradius 101.383
rwrist -10.9697
rhand -5.1505 -44.5501
rfingers 7.12502
rthumb 20.6488 -73.4718
lclavicle 5.46658e-015 -4.77083e-014
lhumerus 1.06265 -49.3344 56.9392
lradius 79.8068
lwrist 43.9488
lhand 1.02547 -26.9284
lfingers 7.12502
lthumb 26.5722 1.22753
rfemur 0 0 0
rtibia 0
rfoot 0 0
rtoes 0
lfemur -7.07841 -6.28758 -10.7738
ltibia 21.8909
lfoot -23.1104 17.2734
ltoes -54.7002
147
root -0.726152 18.7505 5.09886 2.81435 -3.31163 -3.04596
lowerback 3.70285 2.00642 -3.44664
upperback 0.367247 2.48709 -2.29083
thorax -1.74261 1.25686 -0.551809
lowerneck -14.2139 1.1631 2.5435
upperneck 36.5394 -0.0857713 2.88895
head 15.1469 0.714628 0.748091
rclavicle 2.41523e-014 -1.11319e-014
rhumerus 32.3829 63.2209 -32.6421
rradius 98.8333
rwrist -9.1768
rhand -4.62282 -44.2056
rfingers 7.12502
rthumb 21.1558 -73.0713
lclavicle 2.41523e-014 -1.11319e-014
lhumerus 1.4144 -49.3962 56.648
lradius 79.7993
lwrist 44.0385
lhand 1.18696 -26.9028
lfingers 7.12502
lthumb 26.7268 1.22958
rfemur 0 0 0
rtibia 0
rfoot 0 0
rtoes 0
lfemur -7.01985 -6.38073 -10.7792
ltibia 21.8835
lfoot -23.2676 17.4605
ltoes -54.5881
148
root -0.727083 18.7503 5.09172 2.77351 -3.25493 -3.03747
lowerback 3.68513 2.00995 -3.42686
upperback 0.444169 2.49498 -2.37695
thorax -1.64902 1.25897 -0.64895
lowerneck -14.2454 1.13767 2.40271
upperneck 36.424 -0.14542 3.07066
head 15.0988 0.69371 0.837389
rclavicle -4.01545e-014 4.77083e-014
rhumerus 31.7511 62.0802 -32.6395
rradius 97.2599
rwrist -8.6303
rhand -3.66722 -44.604
rfingers 7.12502
rthumb 22.0735 -73.3642
lclavicle -4.01545e-014 4.77083e-014
lhumerus 1.95023 -49.4877 56.0303
lradius 79.8451
lwrist 44.121
lhand 1.24708 -26.6536
lfingers 7.12502
lthumb 26.7843 1.47004
rfemur 0 0 0
rtibia 0
rfoot 0 0
rtoes 0
lfemur -7.02389 -6.38047 -10.78
ltibia 21.8996
lfoot -23.2063 17.4198
ltoes -54.6334
149
root -0.727409 18.7505 5.08688 2.73266 -3.04762 -3.04406
lowerback 3.6455 1.99108 -3.34318
upperback 0.557629 2.47794 -2.49496
thorax -1.50114 1.24766 -0.811288
lowerneck -14.2805 1.10711 2.35065
upperneck 36.2338 -0.214164 3.1906
head 15.0165 0.672048 0.881833
rclavicle 1.61016e-014 -1.43125e-014
rhumerus 31.5046 61.3681 -31.7574
rradius 96.2234
rwrist -8.31447
rhand -1.8732 -45.4972
rfingers 7.12502
rthumb 23.795 -74.0437
lclavicle 1.61016e-014 -1.43125e-014
lhumerus 2.7322 -49.5773 55.2098
lradius 79.8972
lwrist 44.2074
lhand 1.26175 -26.3945
lfingers 7.12502
lthumb 26.7983 1.72701
rfemur 0 0 0
rtibia 0
rfoot 0 0
rtoes 0
lfemur -7.09124 -6.32159 -10.7471
ltibia 21.9511
lfoot -23.0455 17.2189
ltoes -54.7529
150
root -0.728521 18.7516 5.08282 2.73716 -2.70833 -3.08272
lowerback 3.61653 1.95198 -3.30686
upperback 0.646217 2.43171 -2.54765
thorax -1.38953 1.22287 -0.879905
lowerneck -14.3294 1.03891 2.23385
upperneck 36.0953 -0.316848 3.30117
head 14.9625 0.626819 0.929302
rclavicle -2.68359e-014 1.43125e-014
rhumerus 31.6008 61.1628 -29.9304
rradius 95.8796
rwrist -8.53005
rhand 0.749619 -46.242
rfingers 7.12502
rthumb 26.3082 -74.4377
lclavicle -2.68359e-014 1.43125e-014
lhumerus 3.61275 -49.6126 54.4621
lradius 79.8766
lwrist 44.3721
lhand 1.3041 -26.3098
lfingers 7.12502
lthumb 26.8389 1.80541
rfemur 0 0 0
rtibia 0
rfoot 0 0
rtoes 0
lfemur -7.26927 -6.2674 -10.6575
ltibia 22.0496
lfoot -22.8221 16.9507
ltoes -54.9439
151
root -0.722024 18.7549 5.07254 2.85405 -2.40205 -3.1439
lowerback 3.53131 1.88148 -3.22059
upperback 0.72534 2.34903 -2.5468
thorax -1.25629 1.17979 -0.91787
lowerneck -14.4545 0.987779 2.02515
upperneck 36.0182 -0.352976 3.36451
head 14.9538 0.591814 0.986219
rclavicle -3.12092e-014 4.45278e-014
rhumerus 32.7807 61.6364 -26.588
rradius 96.4527
rwrist -8.97942
rhand 3.16496 -47.0721
rfingers 7.12502
rthumb 28.6182 -74.9008
lclavicle -3.12092e-014 4.45278e-014
lhumerus 4.40931 -49.4337 53.8514
lradius 79.8442
lwrist 44.6237
lhand 1.35065 -26.234
lfingers 7.12502
lthumb 26.8834 1.87443
rfemur 0 0 0
rtibia 0
rfoot 0 0
rtoes 0
lfemur -7.59869 -6.3613 -10.5728
ltibia 22.1602
lfoot -22.6454 16.8754
ltoes -55.1022
152
root -0.704767 18.7588 5.05821 3.04892 -2.18026 -3.21701
lowerback 3.2056 1.74741 -3.08622
upperback 0.943411 2.20157 -2.48114
thorax -0.846388 1.10144 -0.902308
lowerneck -14.7712 1.03168 1.83032
upperneck 35.9006 -0.208447 3.29298
head 14.9669 0.617017 1.01521
rclavicle 9.14409e-015 -2.22639e-014
rhumerus 35.6753 62.3842 -21.4867
rradius 97.7242
rwrist -10.8407
rhand 4.6431 -47.465
rfingers 7.12502
rthumb 30.0295 -75.047
lclavicle 9.14409e-015 -2.22639e-014
lhumerus 5.11649 -48.8427 53.3359
lradius 79.8626
lwrist 44.8337
lhand 1.40489 -26.1192
lfingers 7.12502
lthumb 26.9353 1.98116
rfemur 0 0 0
rtibia 0
rfoot 0 0
rtoes 0
lfemur -7.99688 -6.69053 -10.529
ltibia 22.241
lfoot -22.6299 17.059
ltoes -55.1018
153
root -0.705189 18.7598 5.05761 3.08888 -1.70282 -3.2659
lowerback 3.55263 1.59967 -3.18468
upperback 0.789059 1.9794 -2.36553
thorax -1.20486 0.994707 -0.733559
lowerneck -14.7087 1.04328 1.78006
upperneck 35.925 -0.104981 3.11366
head 14.9606 0.629428 0.966394
rclavicle -2.08724e-014 3.65764e-014
rhumerus 38.5118 63.9349 -16.5246
rradius 99.6334
rwrist -13.4663
rhand 5.7143 -49.2016
rfingers 7.12502
rthumb 31.0511 -76.5933
lclavicle -2.08724e-014 3.65764e-014
lhumerus 4.88496 -48.7229 53.5483
lradius 79.9885
lwrist 44.8937
lhand 1.50858 -26.159
lfingers 7.12502
lthumb 27.0345 1.92607
rfemur 0 0 0
rtibia 0
rfoot 0 0
rtoes 0
lfemur -8.2081 -6.94512 -10.4253
ltibia 22.2992
lfoot -22.5663 16.8632
ltoes -55.0457
154
root -0.725459 18.7578 5.06958 2.94112 -1.06056 -3.28111
lowerback 3.85156 1.36008 -3.50938
upperback 0.756488 1.63272 -2.24444
thorax -1.41427 0.825232 -0.420168
lowerneck -14.6073 1.13086 1.96759
upperneck 35.8731 0.0927112 2.78931
head 14.9098 0.692637 0.828665
rclavicle -2.0276e-014 9.54166e-015
rhumerus 42.3806 65.3621 -11.3229
rradius 101.885
rwrist -16.1558
rhand 7.17398 -48.8567
rfingers 7.12502
rthumb 32.4413 -75.9732
lclavicle -2.0276e-014 9.54166e-015
lhumerus 4.52973 -48.571 53.6976
lradius 80.0886
lwrist 44.9423
lhand 1.56249 -26.2763
lfingers 7.12502
lthumb 27.0861 1.80073
rfemur 0 0 0
rtibia 0
rfoot 0 0
rtoes 0
lfemur -8.18837 -7.02139 -10.2794
ltibia 22.358
lfoot -22.4145 16.3043
ltoes -55.0401
155
root -0.728455 18.7573 5.07073 2.93592 -0.810083 -3.28344
lowerback 4.06345 1.2004 -3.49758
upperback 0.689952 1.40645 -2.26449
thorax -1.59623 0.714808 -0.441446
lowerneck -14.5443 1.24512 2.21396
upperneck 35.8657 0.259617 2.59451
head 14.8923 0.768933 0.730797
rclavicle -2.38542e-015 -1.27222e-014
rhumerus 46.7113 66.3965 -6.54955
rradius 104.255
rwrist -18.4607
rhand 8.4048 -49.4934
rfingers 7.12502
rthumb 33.6118 -76.3625
lclavicle -2.38542e-015 -1.27222e-014
lhumerus 4.29941 -48.4663 53.6667
lradius 80.1141
lwrist 45.0444
lhand 1.54271 -26.3873
lfingers 7.12502
lthumb 27.0672 1.69265
rfemur 0 0 0
rtibia 0
rfoot 0 0
rtoes 0
lfemur -8.22439 -7.23448 -10.2553
ltibia 22.3273
lfoot -22.4127 16.2771
ltoes -55.0192
156
root -0.706472 18.7599 5.05586 3.17106 -1.02779 -3.29442
lowerback 4.19338 1.15647 -3.06715
upperback 0.501264 1.35074 -2.40681
thorax -1.84873 0.687801 -0.830752
lowerneck -14.4148 1.35323 2.45334
upperneck 35.9063 0.349317 2.59041
head 14.8841 0.837756 0.700926
rclavicle 3.97569e-015 7.95139e-015
rhumerus 50.5551 67.0133 -3.19176
rradius 106.392
rwrist -20.208
rhand 8.83066 -49.4519
rfingers 7.12502
rthumb 34.0164 -76.232
lclavicle 3.97569e-015 7.95139e-015
lhumerus 4.07974 -48.443 53.6145
lradius 80.0782
lwrist 45.0853
lhand 1.57007 -26.5093
lfingers 7.12502
lthumb 27.0933 1.56661
rfemur 0 0 0
rtibia 0
rfoot 0 0
rtoes 0
lfemur -8.45905 -7.67228 -10.3451
ltibia 22.2618
lfoot -22.6615 16.8964
ltoes -54.844
157
root -0.73444 18.7567 5.07268 2.96311 -0.908673 -3.28882
lowerback 4.26354 1.01996 -3.4557
upperback 0.531104 1.15005 -2.32359
thorax -1.86497 0.590616 -0.517416
lowerneck -14.2463 1.47258 2.73392
upperneck 36.0059 0.454405 2.55542
head 14.8959 0.914694 0.654005
rclavicle -1.68967e-014 -1.59028e-014
rhumerus 53.6339 67.2813 -1.40769
rradius 108.079
rwrist -21.4578
rhand 9.74457 -48.7794
rfingers 7.12502
rthumb 34.884 -75.3624
lclavicle -1.68967e-014 -1.59028e-014
lhumerus 3.68652 -48.4293 53.728
lradius 80.0089
lwrist 45.0036
lhand 1.5989 -26.4582
lfingers 7.12502
lthumb 27.1209 1.61339
rfemur 0 0 0
rtibia 0
rfoot 0 0
rtoes 0
lfemur -8.1366 -7.35153 -10.2381
ltibia 22.1851
lfoot -22.4844 16.4832
ltoes -54.937
